<svg width="510" height="567" viewBox="0 0 510 567" fill="none" xmlns="http://www.w3.org/2000/svg">
<g clip-path="url(#clip0)">
<path d="M361.219 445.596C372.141 457.651 369.48 477.681 363.139 492.352C353.807 514.003 336.465 531.32 324.993 551.84C329.061 553.109 333.146 554.359 337.233 555.645C342.175 536.433 341.521 516.864 343.113 497.46C344.56 479.795 348.781 460.857 361.592 447.137C357.807 445.935 354.002 444.715 350.217 443.513C352.324 468.369 349.076 493.559 340.72 517.765C339.636 520.907 342.017 524.343 344.822 525.15C347.965 526.074 351.257 524.602 352.96 521.57C364.054 501.706 369.078 478.826 367.06 456.946C366.432 450.23 358.271 448.95 354.655 454.826C343.608 472.791 338.185 493.775 339.138 514.123C339.484 521.578 350.319 522.119 352.157 514.589C356.498 496.785 363.004 479.622 371.583 463.202C367.542 463.056 363.482 462.893 359.442 462.747C361.538 467.579 362.683 472.483 362.756 477.862C362.879 485.376 374.029 485.793 375.775 478.329C379.59 461.962 376.222 444.6 366.259 432.042C363.947 429.144 358.697 427.666 355.838 431.613C348.636 441.485 344.839 453.139 345.851 464.961C346.557 473.396 359.761 472.194 359.054 463.721C358.354 455.548 360.338 447.048 365.404 440.079C361.943 439.935 358.445 439.794 354.984 439.65C362.981 449.728 366.061 462.876 362.977 476.152C367.317 476.308 371.656 476.463 375.996 476.619C375.881 470.212 374.665 463.926 372.154 458.175C370.017 453.234 362.979 451.999 360.013 457.72C350.916 475.145 343.974 493.569 339.378 512.43C343.718 512.585 348.058 512.741 352.397 512.897C351.531 494.605 356.423 476.411 366.336 460.298C362.207 459.597 358.06 458.879 353.931 458.178C355.769 477.992 351.465 498.102 341.409 516.105C345.477 517.375 349.563 518.661 353.649 519.911C362.318 494.737 365.681 468.072 363.475 442.25C363.003 436.589 356.291 434.141 352.1 438.626C322.032 470.913 334.216 515.429 324.434 553.469C322.485 561.046 332.963 563.909 336.674 557.274C349.006 535.21 368.002 516.724 376.777 492.854C384.061 473.084 384.273 450.694 370.394 435.351C368.071 432.773 363.345 433.667 361.07 436.226C358.32 439.243 358.877 443.038 361.219 445.596Z" fill="#BBCB8A"/>
<path d="M328.356 429.689C310.631 454.474 288.735 475.953 263.592 492.971C266.858 495.141 270.144 497.329 273.411 499.499C278.063 486.113 279.692 472.167 283.142 458.556C286.32 446.059 291.66 432.552 302.647 424.577C307.882 420.763 313.75 418.392 319.779 416.494C322.673 415.584 325.571 414.824 328.487 414.081C329.937 413.72 331.385 413.321 332.854 413.014C330.92 413.421 334.045 412.79 334.119 412.745C335.727 412.013 334.849 412.808 333.679 411.548C332.374 410.132 333.891 410.271 333.41 411.235C333.445 411.157 333.166 411.972 333.13 412.05C332.819 413.093 332.17 414.092 331.632 415.043C329.657 418.457 327.55 421.788 325.367 425.052C321.216 431.26 316.63 437.227 311.909 443.037C301.05 456.33 289.104 468.731 277.213 481.07C280.937 482.841 284.681 484.629 288.405 486.4C296.153 462.57 308.758 440.199 325.154 420.869C321.43 419.097 317.687 417.309 313.963 415.538C311.881 426.994 303.662 435.779 295.976 444.233C287.345 453.751 279.07 463.367 274.839 475.587C279.179 475.743 283.519 475.899 287.859 476.054C287.188 460.503 292.979 444.721 304.024 432.949C315.087 421.157 330.615 414.726 346.047 414.478C343.794 412.475 341.54 410.472 339.287 408.469C338.604 417.429 335.252 426.545 329.861 434.033C327.709 437.031 327.297 440.917 330.085 443.395C332.453 445.5 337.238 445.539 339.409 442.52C347.134 431.829 351.506 420.027 352.49 407.23C352.774 403.45 348.981 401.178 345.73 401.221C326.898 401.525 307.872 410.161 294.475 424.424C281.061 438.745 273.849 458.396 274.655 477.256C274.789 480.528 277.3 483.163 280.554 483.233C284.051 483.299 286.52 481.022 287.655 477.706C291.467 466.689 300.736 458.03 308.382 449.505C316.682 440.206 324.55 429.971 326.797 417.637C327.936 411.355 320.204 406.901 315.605 412.306C297.591 433.572 284.063 457.981 275.567 484.152C273.356 490.947 282.418 493.981 286.759 489.482C298.979 476.812 311.198 464.104 322.291 450.433C328.065 443.322 333.476 435.927 338.451 428.253C342.382 422.216 347.759 414.937 346.367 407.542C345.638 403.632 342.931 400.602 339.058 399.651C335.279 398.711 331.419 399.899 327.591 400.822C320.325 402.574 313.045 404.496 306.15 407.714C290.401 415.048 280.077 428.047 274.089 444.167C267.662 461.473 266.624 479.831 260.554 497.234C258.559 502.939 265.866 506.795 270.373 503.763C296.454 486.113 319.507 463.793 337.901 438.064C340.053 435.065 340.465 431.179 337.677 428.701C335.331 426.726 330.526 426.67 328.356 429.689Z" fill="#BBCB8A"/>
<path d="M320.959 432.278C324.545 428.244 328.131 424.211 331.716 420.177C332.881 418.866 333.566 417.019 333.544 415.314C333.505 413.703 332.731 411.805 331.493 410.814C328.806 408.646 324.717 408.823 322.168 411.69C318.583 415.723 314.997 419.757 311.412 423.791C310.247 425.101 309.562 426.948 309.584 428.654C309.622 430.265 310.397 432.162 311.635 433.153C314.342 435.339 318.411 435.145 320.959 432.278Z" fill="#BBCB8A"/>
<path d="M437.893 319.921C452.232 327.133 458.411 344.025 457.97 359.98C457.44 378.497 448.634 396.364 439.358 412.53C443.199 412.169 447.003 411.812 450.845 411.452C433.421 384.674 429.658 349.952 440.352 318.039C436.1 318.438 431.849 318.837 427.597 319.236C438.372 343.879 442.884 371.606 439.846 399.329C439.464 402.911 440.966 406.336 444.738 406.977C448.248 407.567 451.814 405.055 452.682 401.502C458.316 378.396 460.141 354.616 457.999 331.452C457.696 328.177 454.979 324.735 451.239 325.443C435.965 328.397 432.633 344.643 431.356 357.656C429.956 371.844 430.684 385.869 433.032 399.649C433.62 403.141 438.032 404.754 441.2 403.612C444.962 402.264 446.314 398.59 445.707 395.081C443.88 384.33 443.391 373.266 444.061 362.206C444.354 357.261 444.757 352.194 446.023 347.308C446.708 344.692 448.336 339.284 451.536 338.683C449.283 336.68 447.03 334.677 444.776 332.674C446.838 354.814 445.205 377.225 439.809 399.332C444.087 400.056 448.366 400.781 452.645 401.505C455.946 371.487 451.959 341.515 440.235 314.709C437.606 308.706 429.73 309.183 427.48 315.906C415.774 350.88 420.442 389.777 439.532 419.063C442.269 423.292 448.417 422.489 451.02 417.985C461.821 399.142 471.302 378.246 471.217 356.691C471.13 336.6 461.946 316.743 444.163 307.791C436.748 304.095 430.496 316.205 437.893 319.921Z" fill="#BBCB8A"/>
<path d="M392.046 349.655C384.604 332.3 367.117 325.552 348.71 325.685C328.66 325.86 308.775 334.539 291.031 344.425C280.204 350.452 269.828 357.356 259.644 364.506C255.361 367.516 255.493 373.828 259.92 376.04C297.274 394.51 344.628 386.386 382.751 367.418C388.828 364.389 389.065 356.316 382.445 354.61C349.252 346.034 313.256 349.226 279.457 359.099C280.678 363.263 281.899 367.427 283.12 371.591C309.622 360.583 337.232 352.98 365.297 350.289C363.105 347.718 360.912 345.146 358.72 342.574C357.199 347.747 351.396 351.275 346.928 353.572C340.502 356.84 333.349 358.656 326.495 360.444C312.453 364.09 298.108 366.037 283.835 366.288C280.285 366.359 277.329 370.146 277.391 373.537C277.483 377.357 280.583 379.599 284.151 379.546C300.76 379.244 317.384 376.501 333.65 372.009C348.374 367.943 366.663 361.328 371.556 344.747C372.802 340.539 369.008 336.654 364.98 337.032C335.871 339.821 306.995 347.655 279.476 359.078C271.407 362.425 274.841 373.983 283.138 371.571C314.802 362.293 348.307 359.673 379.394 367.695C379.292 363.426 379.19 359.157 379.088 354.888C344.03 372.329 300.689 380.977 266.152 363.876C266.244 367.733 266.335 371.553 266.428 375.411C286.132 361.55 307.041 348.026 330.083 341.641C346.422 337.104 371.752 336.49 379.352 354.206C380.737 357.416 383.814 359.492 387.521 358.168C390.634 357.05 393.431 352.865 392.046 349.655Z" fill="#BBCB8A"/>
</g>
<g clip-path="url(#clip1)">
<path d="M162.042 196.332C176.415 203.952 180.727 223.693 179.756 239.645C178.347 263.18 167.931 285.365 164.126 308.563C168.382 308.373 172.649 308.158 176.93 307.977C175.041 288.23 167.767 270.051 162.663 251.262C158.013 234.159 155.538 214.915 162.917 197.655C158.949 197.812 154.956 197.96 150.988 198.117C161.427 220.774 166.942 245.566 167.321 271.17C167.371 274.494 170.779 276.915 173.69 276.719C176.96 276.519 179.555 274.014 180.125 270.585C183.799 248.13 180.738 224.907 171.396 205.018C168.521 198.916 160.411 200.49 159.01 207.245C154.735 227.897 156.774 249.474 164.594 268.284C167.456 275.177 177.828 271.999 176.995 264.293C175.019 246.074 175.297 227.721 177.778 209.362C173.929 210.6 170.056 211.827 166.206 213.065C169.822 216.896 172.567 221.117 174.466 226.151C177.138 233.174 187.764 229.773 186.867 222.16C184.885 205.472 175.811 190.292 162.17 181.872C159.01 179.934 153.57 180.33 152.225 185.014C148.811 196.748 149.206 208.998 154.18 219.771C157.714 227.463 169.721 221.84 166.173 214.113C162.734 206.666 161.708 197.998 164.101 189.721C160.797 190.763 157.46 191.821 154.156 192.863C165.105 199.618 172.475 210.934 174.091 224.468C178.225 223.138 182.359 221.807 186.493 220.477C184.204 214.491 180.923 208.994 176.605 204.441C172.914 200.521 165.876 201.755 165.033 208.143C162.408 227.624 162.148 247.311 164.243 266.61C168.377 265.28 172.511 263.95 176.645 262.619C169.606 245.714 168.016 226.941 171.856 208.416C167.735 209.162 163.591 209.898 159.47 210.644C167.94 228.651 170.734 249.025 167.404 269.375C171.661 269.185 175.941 269.005 180.208 268.789C179.795 242.168 173.885 215.95 163.025 192.418C160.656 187.256 153.511 187.238 151.096 192.881C133.807 233.472 160.41 271.187 164.154 310.285C164.899 318.074 175.727 317.201 176.958 309.699C181.047 284.756 192.621 260.909 192.751 235.478C192.874 214.409 185.456 193.283 167.184 183.577C164.122 181.943 159.983 184.392 158.714 187.572C157.154 191.345 158.97 194.724 162.042 196.332Z" fill="#BBCB8A"/>
<path d="M125.727 192.556C117.493 221.893 104.211 249.541 86.3576 274.097C90.1678 275.027 94.0018 275.966 97.812 276.896C97.6319 262.726 94.4188 249.057 93.0323 235.084C91.7687 222.251 92.195 207.733 99.8124 196.496C103.438 191.129 108.15 186.902 113.173 183.066C115.585 181.226 118.051 179.525 120.541 177.834C121.78 177.002 123.007 176.134 124.284 175.346C122.604 176.386 125.327 174.729 125.381 174.663C126.645 173.426 126.09 174.473 124.56 173.686C122.852 172.798 124.326 172.413 124.201 173.484C124.208 173.398 124.222 174.259 124.215 174.345C124.277 175.431 124.007 176.592 123.825 177.669C123.129 181.551 122.281 185.401 121.339 189.213C119.548 196.462 117.266 203.633 114.803 210.704C109.115 226.898 102.101 242.623 95.1171 258.272C99.2218 258.67 103.35 259.078 107.455 259.476C106.633 234.432 110.874 209.107 119.716 185.351C115.611 184.953 111.483 184.545 107.378 184.147C109.319 195.627 104.579 206.685 100.228 217.249C95.3495 229.136 90.8405 240.993 91.0197 253.924C95.1536 252.594 99.2874 251.264 103.421 249.934C97.4997 235.538 97.5752 218.727 103.956 203.9C110.347 189.047 122.76 177.717 137.188 172.233C134.387 171.117 131.587 170 128.787 168.883C131.193 177.541 131.142 187.254 128.621 196.128C127.617 199.68 128.552 203.474 132.016 204.856C134.959 206.03 139.472 204.438 140.486 200.861C144.114 188.18 144.209 175.594 140.78 163.225C139.761 159.574 135.422 158.729 132.379 159.875C114.774 166.568 99.8213 181.162 92.0768 199.133C84.3357 217.163 84.2395 238.095 91.4141 255.556C92.6534 258.587 95.9117 260.211 98.9951 259.17C102.306 258.042 103.852 255.06 103.792 251.556C103.627 239.899 109.397 228.604 113.687 217.986C118.328 206.417 122.244 194.116 120.16 181.753C119.095 175.459 110.309 173.901 107.823 180.549C98.1186 206.674 93.7028 234.23 94.6181 261.73C94.8505 268.872 104.405 268.642 106.956 262.934C114.136 246.863 121.302 230.756 127.082 214.126C130.092 205.475 132.664 196.679 134.732 187.771C136.374 180.757 138.953 172.082 135.129 165.602C133.113 162.173 129.536 160.245 125.571 160.669C121.697 161.071 118.473 163.501 115.187 165.671C108.95 169.791 102.758 174.075 97.3696 179.447C85.0555 191.702 79.7699 207.438 79.6235 224.634C79.4678 243.094 84.7377 260.71 84.9515 279.14C85.017 285.183 93.1995 286.323 96.4058 281.939C114.926 256.468 129.01 227.636 137.552 197.183C138.556 193.632 137.621 189.837 134.156 188.456C131.278 187.396 126.741 188.979 125.727 192.556Z" fill="#BBCB8A"/>
<path d="M119.653 197.508C121.653 192.494 123.652 187.481 125.651 182.468C126.301 180.84 126.316 178.87 125.715 177.273C125.131 175.772 123.757 174.251 122.255 173.741C118.991 172.616 115.206 174.174 113.785 177.736C111.786 182.749 109.787 187.762 107.787 192.775C107.138 194.404 107.122 196.374 107.724 197.97C108.308 199.471 109.681 200.993 111.183 201.503C114.472 202.638 118.233 201.07 119.653 197.508Z" fill="#BBCB8A"/>
<path d="M191.383 52.0686C207.321 53.9712 218.878 67.7532 223.892 82.9072C229.694 100.499 227.492 120.297 224.269 138.654C227.759 137.008 231.215 135.378 234.704 133.732C209.21 114.48 193.857 83.1098 193.055 49.4617C189.193 51.2836 185.331 53.1056 181.468 54.9276C199.985 74.4344 213.662 98.9718 220.237 126.074C221.097 129.573 223.675 132.282 227.44 131.601C230.94 130.962 233.439 127.387 233.046 123.75C230.483 100.106 224.108 77.124 214.212 56.0709C212.814 53.0946 209.087 50.7825 205.811 52.7204C192.454 60.695 194.849 77.1051 198.074 89.7764C201.586 103.594 207.042 116.535 213.938 128.694C215.679 131.778 220.377 131.793 222.968 129.641C226.047 127.094 226.067 123.179 224.303 120.086C218.927 110.598 214.703 100.36 211.57 89.7319C210.164 84.9827 208.818 80.0808 208.346 75.0557C208.1 72.3621 207.791 66.7233 210.596 65.0696C207.796 63.9527 204.995 62.8359 202.195 61.7191C211.666 81.8361 217.756 103.466 220.203 126.09C224.473 125.316 228.742 124.541 233.012 123.766C225.903 94.4159 211.957 67.5885 191.812 46.3705C187.298 41.6206 180.054 44.7484 180.225 51.8364C181.117 88.706 198.74 123.695 226.656 144.738C230.668 147.784 236.177 144.937 237.091 139.816C240.837 118.422 242.644 95.5473 235.23 75.3069C228.312 56.444 212.92 40.8968 193.152 38.5284C184.922 37.5763 183.163 51.091 191.383 52.0686Z" fill="#BBCB8A"/>
<path d="M158.387 95.627C145.484 81.8393 126.745 81.4443 109.482 87.8317C90.6868 94.8177 74.9414 109.744 61.6197 125.078C53.4891 134.429 46.081 144.452 38.9374 154.639C35.9343 158.928 38.2061 164.818 43.1209 165.392C84.5307 170.05 126.295 146.3 155.691 115.493C160.374 110.577 157.851 102.904 151.045 103.553C116.915 106.782 84.1524 122.03 55.7289 142.814C58.2938 146.314 60.8587 149.815 63.4236 153.315C84.5986 133.947 107.975 117.404 133.45 105.325C130.514 103.652 127.577 101.98 124.641 100.307C124.97 105.689 120.714 110.981 117.294 114.661C112.363 119.92 106.255 124.062 100.418 128.075C88.4539 136.281 75.6273 142.993 62.291 148.085C58.9773 149.359 57.4861 153.926 58.6984 157.093C60.0839 160.654 63.762 161.708 67.0995 160.444C82.6143 154.509 97.314 146.274 111.081 136.516C123.543 127.682 138.49 115.239 137.45 97.9834C137.19 93.6027 132.301 91.2399 128.641 92.966C102.218 105.492 77.7303 122.684 55.7391 142.788C49.2904 148.681 56.4523 158.38 63.4337 153.29C90.0517 133.792 120.666 119.929 152.628 116.896C151.08 112.916 149.531 108.936 147.983 104.956C120.951 133.285 83.1375 156.163 44.8427 151.833C46.2417 155.429 47.6272 158.99 49.0263 162.586C62.8396 142.848 77.9 123.017 97.3947 109.173C111.215 99.3476 134.825 90.1525 147.999 104.225C150.394 106.773 153.994 107.678 157.029 105.172C159.576 103.062 160.782 98.1748 158.387 95.627Z" fill="#BBCB8A"/>
</g>
<g clip-path="url(#clip2)">
<path d="M296.01 209.043C285.969 204.376 272.725 211.123 263.752 219.123C250.504 230.914 241.541 247.226 229.42 260.231C227.88 257.707 226.351 255.165 224.797 252.632C237.104 244.496 250.58 240.173 263.573 234.324C275.401 229.002 287.64 221.436 294.895 209.159C296.342 211.503 297.804 213.856 299.251 216.2C281.923 220.802 265.252 229.217 250.097 240.951C248.13 242.473 245.389 241.653 244.375 239.897C243.223 237.932 243.685 235.279 245.474 233.352C257.21 220.77 272.01 211.683 287.291 207.745C291.982 206.542 294.206 211.916 290.789 215.871C280.343 227.955 266.905 236.859 252.847 241.164C247.697 242.743 245.536 235.326 250.376 232.206C261.821 224.833 272.47 216.109 282.269 206.122C283.037 208.901 283.819 211.69 284.587 214.47C280.939 214.189 277.4 214.589 273.713 215.852C268.56 217.601 266.432 209.934 271.242 206.894C281.792 200.24 294.21 198.346 304.436 202.221C306.798 203.124 308.675 206.421 306.452 209.377C300.898 216.806 293.565 222.297 285.321 224.48C279.442 226.048 278.081 216.554 283.985 214.978C289.684 213.469 295.163 210.011 299.086 204.779C299.757 207.155 300.431 209.559 301.102 211.935C292.896 208.824 283.405 209.889 274.845 215.281C274.021 212.295 273.197 209.309 272.374 206.323C276.77 204.839 281.265 204.151 285.609 204.496C289.338 204.778 291.345 209.38 287.927 212.844C277.527 223.438 266.088 232.775 253.964 240.583C253.14 237.597 252.316 234.611 251.493 231.626C264.132 227.762 275.752 219.91 285.12 209.068C286.282 211.773 287.458 214.488 288.619 217.193C274.779 220.752 261.754 228.662 251.117 240.065C249.578 237.541 248.023 235.008 246.494 232.467C262.258 220.278 279.917 211.423 297.922 206.653C301.868 205.6 304.649 209.679 302.279 213.694C285.193 242.529 252.768 244.912 228.399 261.018C223.545 264.227 219.857 257.625 223.776 253.419C236.81 239.438 246.298 221.688 261.154 209.744C273.455 199.841 288.716 194.224 301.492 200.148C303.637 201.137 303.807 204.648 302.435 206.858C300.829 209.511 298.144 210.049 296.01 209.043Z" fill="#BBCB8A"/>
<path d="M312.309 228.055C298.308 246.458 287.255 266.961 279.786 288.635C277.763 286.889 275.726 285.134 273.703 283.388C282.078 276.878 291.336 272.337 300.064 266.609C308.076 261.342 316.42 254.323 320.052 244.72C321.791 240.141 322.441 235.473 322.741 230.809C322.884 228.57 322.924 226.366 322.95 224.152C322.957 223.054 322.99 221.947 322.957 220.849C322.998 222.296 322.913 219.964 322.931 219.902C323.166 218.602 322.768 219.408 323.822 219.916C325.005 220.479 324.659 219.456 324.08 220.027C324.128 219.983 323.617 220.377 323.57 220.421C322.909 220.893 322.334 221.589 321.773 222.196C319.767 224.405 317.84 226.687 315.971 229.006C312.416 233.414 309.098 238.066 305.909 242.775C298.624 253.587 292.127 264.939 285.664 276.238C283.839 274.076 281.998 271.904 280.173 269.742C295.171 258.524 308.369 244.277 318.864 228.132C320.69 230.294 322.53 232.466 324.355 234.628C316.874 238.876 312.231 246.749 307.727 254.168C302.652 262.507 297.45 270.621 289.802 276.553C288.978 273.567 288.154 270.581 287.33 267.596C298.065 264.265 307.889 256.376 314.105 245.805C320.331 235.217 322.158 222.827 319.776 212.014C321.516 213.095 323.257 214.176 324.998 215.257C318.99 217.921 313.317 222.483 309.093 228.067C307.401 230.299 304.814 231.535 302.66 230.198C300.831 229.062 300.013 225.737 301.717 223.488C307.743 215.494 315.082 209.565 323.662 205.754C326.197 204.634 328.376 206.721 328.884 208.997C331.79 222.193 329.036 237.559 321.507 250.376C313.941 263.22 301.709 273.044 288.692 277.089C286.435 277.795 284.219 276.688 283.634 274.438C283.011 272.018 284.158 269.742 286.236 268.141C293.132 262.795 297.515 254.222 302.074 246.812C307.055 238.757 312.746 230.776 320.8 226.198C324.903 223.87 329.224 228.17 326.292 232.695C314.743 250.439 300.304 265.827 283.831 278.138C279.554 281.338 275.984 275.764 278.339 271.641C284.974 260.033 291.635 248.415 299.141 237.347C303.044 231.588 307.202 226.011 311.621 220.67C315.095 216.458 319.179 210.933 324.461 210.097C327.253 209.65 329.77 210.796 331.06 213.263C332.327 215.666 332.153 218.645 332.156 221.538C332.16 227.029 332.051 232.571 330.992 238.161C328.586 250.925 321.412 261.293 311.39 269.402C300.63 278.107 288.261 283.314 277.376 291.793C273.808 294.576 269.966 290.427 271.292 286.547C279.038 264.064 290.474 242.55 305.01 223.45C306.703 221.218 309.289 219.982 311.443 221.319C313.18 222.472 314.013 225.806 312.309 228.055Z" fill="#BBCB8A"/>
<path d="M311.763 233.841C313.926 230.358 316.089 226.874 318.252 223.391C318.954 222.259 320.103 221.331 321.272 220.93C322.378 220.563 323.803 220.639 324.685 221.26C326.61 222.603 327.165 225.495 325.628 227.971C323.465 231.454 321.302 234.938 319.14 238.421C318.437 239.553 317.288 240.481 316.119 240.882C315.013 241.249 313.589 241.173 312.707 240.552C310.766 239.2 310.226 236.317 311.763 233.841Z" fill="#BBCB8A"/>
<path d="M369.187 124.926C361.89 116.697 349.329 116.517 338.502 120.721C325.94 125.612 315.19 136.112 305.68 146.523C305.292 143.759 304.907 141.021 304.518 138.256C325.691 143.856 350.033 137.999 370.066 122.753C370.497 125.813 370.927 128.873 371.357 131.933C352.741 130.444 333.054 134.071 314.618 142.959C312.234 144.1 309.646 143.89 308.585 141.418C307.601 139.117 308.728 136.019 311.012 134.546C325.864 124.977 341.808 117.898 357.986 113.734C360.273 113.145 363.074 114.198 363.208 116.976C363.715 128.34 353.168 134.629 344.49 138.697C335.029 143.137 325.327 146.056 315.526 147.785C313.043 148.228 311.212 145.548 311.468 143.061C311.767 140.111 314.053 138.272 316.551 137.838C324.197 136.485 331.836 134.124 339.281 130.955C342.61 129.544 346.006 128.026 349.134 125.95C350.808 124.834 354.233 122.379 354.114 120.002C355.855 121.083 357.596 122.164 359.337 123.245C343.872 127.216 328.832 133.826 314.622 142.986C313.42 140.181 312.218 137.377 311.015 134.573C330.976 124.941 352.11 120.399 372.36 122.021C376.895 122.387 377.872 127.991 373.651 131.201C351.694 147.899 324.351 154.146 301.188 147.997C297.848 147.123 297.379 142.643 300.026 139.73C311.113 127.602 323.82 115.892 338.559 110.687C352.298 105.842 367.381 107.391 376.437 117.595C380.187 121.859 372.948 129.173 369.187 124.926Z" fill="#BBCB8A"/>
<path d="M356.454 164.133C369.54 165.079 377.041 175.616 379.993 188.473C383.188 202.486 380.547 218.461 376.727 233.238C374.399 242.254 371.398 251.17 368.198 260.012C366.849 263.731 362.515 265.181 360.272 262.637C341.48 241.12 339.201 206.142 345.856 174.947C346.921 169.973 352.397 167.836 354.656 172.032C366.002 193.065 369.773 218.925 368.616 244.886C365.569 245.052 362.523 245.219 359.476 245.385C362.615 224.232 363.244 203.137 360.443 182.925C362.562 183.825 364.681 184.724 366.801 185.623C363.519 187.946 362.067 192.852 361.237 196.526C360.067 201.801 360.009 207.228 359.92 212.441C359.752 223.115 360.793 233.586 362.981 243.592C363.519 246.083 361.421 249.067 359.094 249.852C356.47 250.721 354.425 249.109 353.872 246.609C351.332 234.964 350.458 222.71 350.838 210.28C351.181 199.028 352.677 184.669 363.194 177.21C365.863 175.315 369.144 177.009 369.552 179.908C372.459 200.871 371.881 222.904 368.627 244.868C367.674 251.308 359.211 251.737 359.487 245.367C360.591 221.039 356.842 197.055 346.222 177.354C349.155 176.382 352.088 175.411 355.022 174.439C348.903 203.125 350.16 235.436 367.552 255.324C364.902 256.201 362.277 257.071 359.627 257.949C365.838 240.834 371.62 222.963 372.173 205.348C372.571 192.856 368.802 175.058 355.444 174.089C353.022 173.908 351.095 172.271 351.387 169.365C351.636 166.923 354.032 163.952 356.454 164.133Z" fill="#BBCB8A"/>
</g>
<defs>
<clipPath id="clip0">
<rect width="186" height="271" fill="white" transform="translate(329.017 566.119) rotate(-138.366)"/>
</clipPath>
<clipPath id="clip1">
<rect width="186" height="271" fill="white" transform="translate(172.767 320.622) rotate(-158.257)"/>
</clipPath>
<clipPath id="clip2">
<rect width="126.416" height="205.887" fill="white" transform="matrix(0.849568 0.52748 0.52748 -0.849568 219 260.915)"/>
</clipPath>
</defs>
</svg>
